<svg class="svg-icon" width="35" height="35" viewBox="0 0 1024 1024" version="1.1" xmlns="http://www.w3.org/2000/svg"><path d="M512 1024C230.4 1024 0 793.6 0 512S230.4 0 512 0s512 230.4 512 512S793.6 1024 512 1024zM512 85.333333C277.333333 85.333333 85.333333 277.333333 85.333333 512s192 426.666667 426.666667 426.666667 426.666667-192 426.666667-426.666667S746.666667 85.333333 512 85.333333z"  /><path d="M512 554.666667c-25.6 0-42.666667-17.066667-42.666667-42.666667L469.333333 213.333333c0-25.6 17.066667-42.666667 42.666667-42.666667s42.666667 17.066667 42.666667 42.666667l0 298.666667C554.666667 537.6 537.6 554.666667 512 554.666667z"  /><path d="M682.666667 725.333333c-12.8 0-21.333333-4.266667-29.866667-12.8l-170.666667-170.666667c-17.066667-17.066667-17.066667-42.666667 0-59.733333s42.666667-17.066667 59.733333 0l170.666667 170.666667c17.066667 17.066667 17.066667 42.666667 0 59.733333C704 721.066667 695.466667 725.333333 682.666667 725.333333z"  /></svg>