<svg xmlns="http://www.w3.org/2000/svg" xmlns:xlink="http://www.w3.org/1999/xlink" version="1.1" width="48" height="48" viewBox="0 0 256 256" xml:space="preserve">

<defs>
</defs>
<g style="stroke: none; stroke-width: 0; stroke-dasharray: none; stroke-linecap: butt; stroke-linejoin: miter; stroke-miterlimit: 10; fill: none; fill-rule: nonzero; opacity: 1;" transform="translate(1.4065934065934016 1.4065934065934016) scale(2.81 2.81)" >
	<path d="M 35.762 3.079 C 16.011 3.079 0 19.091 0 38.841 c 0 9.875 4.003 18.816 10.474 25.288 L 0 74.603 h 35.762 c 19.751 0 35.762 -16.011 35.762 -35.762 S 55.513 3.079 35.762 3.079 z" style="stroke: none; stroke-width: 1; stroke-dasharray: none; stroke-linecap: butt; stroke-linejoin: miter; stroke-miterlimit: 10; fill: rgb(135,230,148); fill-rule: nonzero; opacity: 1;" transform=" matrix(1 0 0 1 0 0) " stroke-linecap="round" />
	<path d="M 90 51.159 c 0 -13.239 -7.197 -24.794 -17.889 -30.977 c 2.886 5.598 4.526 11.939 4.526 18.659 c 0 22.538 -18.337 40.876 -40.876 40.876 h -3.053 c 5.989 4.522 13.446 7.204 21.529 7.204 H 90 L 79.526 76.446 C 85.997 69.975 90 61.034 90 51.159 z" style="stroke: none; stroke-width: 1; stroke-dasharray: none; stroke-linecap: butt; stroke-linejoin: miter; stroke-miterlimit: 10; fill: rgb(82,169,90); fill-rule: nonzero; opacity: 1;" transform=" matrix(1 0 0 1 0 0) " stroke-linecap="round" />
	<path d="M 52.188 23.99 H 19.741 c -0.552 0 -1 -0.448 -1 -1 s 0.448 -1 1 -1 h 32.448 c 0.553 0 1 0.448 1 1 S 52.741 23.99 52.188 23.99 z" style="stroke: none; stroke-width: 1; stroke-dasharray: none; stroke-linecap: butt; stroke-linejoin: miter; stroke-miterlimit: 10; fill: rgb(255,255,255); fill-rule: nonzero; opacity: 1;" transform=" matrix(1 0 0 1 0 0) " stroke-linecap="round" />
	<path d="M 52.188 33.99 H 19.741 c -0.552 0 -1 -0.448 -1 -1 s 0.448 -1 1 -1 h 32.448 c 0.553 0 1 0.448 1 1 S 52.741 33.99 52.188 33.99 z" style="stroke: none; stroke-width: 1; stroke-dasharray: none; stroke-linecap: butt; stroke-linejoin: miter; stroke-miterlimit: 10; fill: rgb(255,255,255); fill-rule: nonzero; opacity: 1;" transform=" matrix(1 0 0 1 0 0) " stroke-linecap="round" />
	<path d="M 52.188 43.99 H 19.741 c -0.552 0 -1 -0.448 -1 -1 s 0.448 -1 1 -1 h 32.448 c 0.553 0 1 0.448 1 1 S 52.741 43.99 52.188 43.99 z" style="stroke: none; stroke-width: 1; stroke-dasharray: none; stroke-linecap: butt; stroke-linejoin: miter; stroke-miterlimit: 10; fill: rgb(255,255,255); fill-rule: nonzero; opacity: 1;" transform=" matrix(1 0 0 1 0 0) " stroke-linecap="round" />
	<path d="M 36.254 53.99 H 19.741 c -0.552 0 -1 -0.447 -1 -1 s 0.448 -1 1 -1 h 16.514 c 0.552 0 1 0.447 1 1 S 36.807 53.99 36.254 53.99 z" style="stroke: none; stroke-width: 1; stroke-dasharray: none; stroke-linecap: butt; stroke-linejoin: miter; stroke-miterlimit: 10; fill: rgb(255,255,255); fill-rule: nonzero; opacity: 1;" transform=" matrix(1 0 0 1 0 0) " stroke-linecap="round" />
</g>
</svg>