<svg class="svg-icon" width="46" height="46" viewBox="0 0 1024 1024" version="1.1" xmlns="http://www.w3.org/2000/svg"><path d="M512.219429 512.420571c101.997714 0 185.142857-90.843429 185.142857-201.417142 0-109.714286-82.285714-195.858286-185.142857-195.858286-101.577143 0-185.142857 87.862857-185.142858 196.717714 0.420571 110.134857 83.565714 200.557714 185.142858 200.557714z m0-64.713142c-62.573714 0-116.150857-59.977143-116.150858-135.862858 0-74.550857 52.717714-131.986286 116.150858-131.986285 64.274286 0 116.132571 56.576 116.132571 131.145143 0 75.849143-52.717714 136.704-116.132571 136.704z m-269.147429 461.165714h538.294857c71.131429 0 104.996571-21.449143 104.996572-68.571429 0-112.310857-141.44-274.724571-374.144-274.724571-232.722286 0-374.582857 162.432-374.582858 274.706286 0 47.140571 33.865143 68.571429 105.435429 68.571428z m-20.571429-64.731429c-11.154286 0-15.853714-2.998857-15.853714-11.995428 0-70.290286 108.854857-201.874286 305.554286-201.874286 196.736 0 305.152 131.584 305.152 201.874286 0 8.996571-4.278857 11.995429-15.414857 11.995428z"  /></svg>